<svg width="228" height="58" viewBox="0 0 228 58" fill="none" xmlns="http://www.w3.org/2000/svg">
<path d="M98.1615 41.9676H94.996V24.4289L96.9784 22.4514H94.3885L90.1359 30.783H87.8337L83.741 22.4514H81.1831L83.1655 24.4289V41.9676H80V19.5985H85.6595L88.9528 26.9576H89.3365L92.6939 19.5985H98.1615V41.9676Z" fill="#584EB4"/>
<path d="M115.192 39.1796L112.442 42H106.527L103.777 39.1796V27.995L106.527 25.1746H112.442L115.192 27.995V39.1796ZM112.058 39.1796L111.307 33.5711L112.058 27.995H106.942L107.81 33.6035L106.942 39.1796H112.058Z" fill="#584EB4"/>
<path d="M131.075 37.5262L126.63 42H124.041L119.628 37.5262V24.3965L122.762 27.606V37.0075L125.352 39.5362L127.909 37.0075V27.606L131.075 24.3965V37.5262Z" fill="#584EB4"/>
<path d="M138.987 22.419H135.821V19.2095L140.284 19.1771L142.282 22.419H138.987ZM138.987 42H135.821V27.6384L138.987 24.3965V42Z" fill="#584EB4"/>
<path d="M160.767 41.9676L146.932 42L144.182 39.1796V27.995L146.932 25.1746H152.847L155.597 27.995V33.6035L152.847 36.3915H147.731L150.545 33.6035H152.464V27.995H147.348V39.1796H160.767V41.9676Z" fill="#584EB4"/>
<path d="M173.289 34.803L168.077 42H164.528L159.476 34.803V19.5985H162.705V34.2194L165.967 39.2768H166.798L170.123 34.2194V19.5985H173.289V34.803Z" fill="#584EB4"/>
<path d="M188.904 42H185.738V39.601L183.372 42H180.207L177.457 39.1796V33.6035L180.207 30.783H185.419L182.797 33.5711H180.59V39.1796H185.738V27.995H177.041L179.407 25.1746H186.154L188.904 27.995V42Z" fill="#584EB4"/>
<path d="M205.466 42H202.333V39.601L199.967 42H196.801L194.02 39.1796V25.1746H197.185V39.1796H202.333V25.1746H205.466V42Z" fill="#584EB4"/>
<path d="M216.895 42H213.761L211.011 39.1796V19.1771L214.177 16V39.1796H216.895V42Z" fill="#584EB4"/>
<path d="M228 25.1746L225.218 27.995H223.236V39.1796H227.169V42H222.852L220.07 39.1796V27.995H216.137L218.919 25.1746H220.07V22.808L223.236 19.5985V25.1746H228Z" fill="#584EB4"/>
<path d="M5.73014 6.39095H15.4818H29.3729H42.9666H52.2699C53.8463 6.39095 55.2812 7.0376 56.3197 8.07129C57.3581 9.1097 58 10.5446 58 12.1211V15.4865V42.5088V45.8553C58 47.4318 57.3533 48.8667 56.3197 49.9051C55.2812 50.9435 53.8463 51.5854 52.2699 51.5854H43.2074C43.1318 51.5996 43.0516 51.6043 42.9666 51.6043C42.8864 51.6043 42.8061 51.5996 42.7259 51.5854H29.6136C29.5381 51.5996 29.4578 51.6043 29.3729 51.6043C29.2926 51.6043 29.2124 51.5996 29.1322 51.5854H15.7225C15.647 51.5996 15.5667 51.6043 15.4818 51.6043C15.4015 51.6043 15.3213 51.5996 15.241 51.5854H5.73014C4.15365 51.5854 2.71875 50.9388 1.68034 49.9051C0.641927 48.8714 0 47.4318 0 45.8553V42.5088V15.4865V12.1211C0 10.5446 0.646647 9.1097 1.68034 8.07129C2.71875 7.0376 4.15365 6.39095 5.73014 6.39095ZM26.05 21.1364L35.7402 27.8955C35.8913 27.9899 36.0282 28.1221 36.1367 28.2778C36.571 28.9056 36.4105 29.7599 35.7874 30.1942L26.1349 36.8683C25.8989 37.0618 25.5921 37.1799 25.2617 37.1799C24.4971 37.1799 23.8787 36.5615 23.8787 35.7969V22.2645H23.8835C23.8835 21.9907 23.9637 21.717 24.1289 21.4762C24.5679 20.8532 25.4269 20.7021 26.05 21.1364ZM44.3449 43.8918V48.8242H52.2651C53.0817 48.8242 53.8227 48.4891 54.3608 47.951C54.8989 47.4129 55.234 46.6719 55.234 45.8553V43.8918H44.3449ZM41.5837 48.8242V43.8918H30.7559V48.8242H41.5837ZM27.9946 48.8242V43.8918H16.8647V48.8242H27.9946ZM14.0988 48.8242V43.8918H2.76123V45.8553C2.76123 46.6719 3.09635 47.4129 3.63444 47.951C4.17253 48.4891 4.91357 48.8242 5.73014 48.8242H14.0988ZM2.76123 41.1305H15.4818H29.3729H42.9666H55.2388V16.8695H42.9666H29.3729H15.4818H2.76123V41.1305ZM41.5837 14.1082V9.15218H30.7559V14.1035H41.5837V14.1082ZM44.3449 9.15218V14.1035H55.234V12.1211C55.234 11.3045 54.8989 10.5635 54.3608 10.0254C53.8227 9.4873 53.0817 9.15218 52.2651 9.15218H44.3449ZM27.9946 14.1082V9.15218H16.8647V14.1035H27.9946V14.1082ZM14.0988 14.1082V9.15218H5.73014C4.91357 9.15218 4.17253 9.4873 3.63444 10.0254C3.09635 10.5635 2.76123 11.3045 2.76123 12.1211V14.1035H14.0988V14.1082Z" fill="#584EB4"/>
</svg>
