<svg width="58" height="55" viewBox="0 0 58 55" fill="none" xmlns="http://www.w3.org/2000/svg">
<path d="M5.73014 0.375908H15.4818H29.3729H42.9666H52.2699C53.8463 0.375908 55.2812 1.1447 56.3197 2.37364C57.3581 3.6082 58 5.31413 58 7.18841V11.1895V43.316V47.2946C58 49.1689 57.3533 50.8749 56.3197 52.1094C55.2812 53.344 53.8463 54.1071 52.2699 54.1071H43.2074C43.1318 54.124 43.0516 54.1296 42.9666 54.1296C42.8864 54.1296 42.8061 54.124 42.7259 54.1071H29.6136C29.5381 54.124 29.4578 54.1296 29.3729 54.1296C29.2926 54.1296 29.2124 54.124 29.1322 54.1071H15.7225C15.647 54.124 15.5667 54.1296 15.4818 54.1296C15.4015 54.1296 15.3213 54.124 15.241 54.1071H5.73014C4.15365 54.1071 2.71875 53.3384 1.68034 52.1094C0.641927 50.8805 0 49.1689 0 47.2946V43.316V11.1895V7.18841C0 5.31413 0.646647 3.6082 1.68034 2.37364C2.71875 1.1447 4.15365 0.375908 5.73014 0.375908ZM26.05 17.9066L35.7402 25.9424C35.8913 26.0547 36.0282 26.2118 36.1367 26.397C36.571 27.1433 36.4105 28.159 35.7874 28.6753L26.1349 36.6101C25.8989 36.8402 25.5921 36.9805 25.2617 36.9805C24.4971 36.9805 23.8787 36.2454 23.8787 35.3363V19.2478H23.8835C23.8835 18.9223 23.9637 18.5968 24.1289 18.3106C24.5679 17.5699 25.4269 17.3903 26.05 17.9066ZM44.3449 44.9602V50.8244H52.2651C53.0817 50.8244 53.8227 50.4259 54.3608 49.7862C54.8989 49.1465 55.234 48.2655 55.234 47.2946V44.9602H44.3449ZM41.5837 50.8244V44.9602H30.7559V50.8244H41.5837ZM27.9946 50.8244V44.9602H16.8647V50.8244H27.9946ZM14.0988 50.8244V44.9602H2.76123V47.2946C2.76123 48.2655 3.09635 49.1465 3.63444 49.7862C4.17253 50.4259 4.91357 50.8244 5.73014 50.8244H14.0988ZM2.76123 41.6774H15.4818H29.3729H42.9666H55.2388V12.8337H42.9666H29.3729H15.4818H2.76123V41.6774ZM41.5837 9.5509V3.6587H30.7559V9.54529H41.5837V9.5509ZM44.3449 3.6587V9.54529H55.234V7.18841C55.234 6.2176 54.8989 5.33658 54.3608 4.69685C53.8227 4.05713 53.0817 3.6587 52.2651 3.6587H44.3449ZM27.9946 9.5509V3.6587H16.8647V9.54529H27.9946V9.5509ZM14.0988 9.5509V3.6587H5.73014C4.91357 3.6587 4.17253 4.05713 3.63444 4.69685C3.09635 5.33658 2.76123 6.2176 2.76123 7.18841V9.54529H14.0988V9.5509Z" fill="#584EB4"/>
</svg>
